# xmcd
#
# Track frame offsets:
#	150
#	15347
#	27050
#	45589
#	58355
#	68565
#	82587
#	93802
#	111495
#	123870
#	144102
#	155380
#	166317
#	180615
#	194675
#	210272
#	229725
#	252987
#	267450
#
# Disc length: 3780
#
# Revision: 3
# Processed by: cddbd v1.5.1PL0 Copyright (c) Steve Scherf et al.
# Submitted via: FreeRIP 1.20
# Normalized: r1:TDELIM( - );r2:DSETVAR1
#
DISCID=f00ec213
DTITLE=Various Artist - Cowboy Forever
DYEAR=1900
DGENRE=country
TTITLE0=Billy Ray Cyrus - Achi Break Heart
TTITLE1=Allan Jackson - Little Bitty
TTITLE2=Shanaia Twain - Any Man Of Mine
TTITLE3=Pam Tillis - Mi Loca
TTITLE4=George Strait - Heartland
TTITLE5=Terri Clark - Better Things To Do
TTITLE6=Daron Morwod - Bag Dog'No Biscuit
TTITLE7=Allan Jackson - Chattahoochee
TTITLE8=Clay Walker - Only on Days Thatend In "Y"
TTITLE9=Garth Brooks - Ain't Going Down
TTITLE10=Rick Trevino - I Want A Gril In A Pick-up Truck
TTITLE11=Allan Jackson - Tall, Tall Trees
TTITLE12=Chirs Ward - When You Get To Be You
TTITLE13=Faith Hill - Let's Go To Vegas
TTITLE14=Shanaia Twain - I'm Holdin On To Love
TTITLE15=Shanaia Twain - You Win My Love
TTITLE16=Alabama - Dixieland Delight
TTITLE17=Bellamy Brothers - Get A Little Crazy
TTITLE18=Chary Ascherall - Walking Away A Winner
EXTD=
EXTT0=
EXTT1=
EXTT2=
EXTT3=
EXTT4=
EXTT5=
EXTT6=
EXTT7=
EXTT8=
EXTT9=
EXTT10=
EXTT11=
EXTT12=
EXTT13=
EXTT14=
EXTT15=
EXTT16=
EXTT17=
EXTT18=
PLAYORDER=
